<svg xmlns="http://www.w3.org/2000/svg" viewBox="0 0 900 700">
  <defs>
    <linearGradient id="bg" x1="0" y1="0" x2="1" y2="1"><stop stop-color="#F6E0D8"/><stop offset="1" stop-color="#4B1421"/></linearGradient>
    <linearGradient id="bottle" x1="0" y1="0" x2="0" y2="1"><stop stop-color="#FFF7F3"/><stop offset=".56" stop-color="#EFC7C9"/><stop offset="1" stop-color="#B8707D"/></linearGradient>
    <linearGradient id="gold" x1="0" y1="0" x2="1" y2="1"><stop stop-color="#FFF0CC"/><stop offset="1" stop-color="#C89A55"/></linearGradient>
  </defs>
  <rect width="900" height="700" rx="28" fill="url(#bg)"/>
  <circle cx="715" cy="150" r="130" fill="#FFF0CC" opacity=".18"/>
  <g transform="translate(305 90)">
    <rect x="94" y="0" width="120" height="72" rx="20" fill="url(#gold)"/>
    <rect x="36" y="84" width="236" height="420" rx="118" fill="url(#bottle)" stroke="#FFF7F3" stroke-width="8"/>
    <rect x="66" y="218" width="176" height="116" rx="58" fill="#4B1421" stroke="url(#gold)" stroke-width="6"/>
    <text x="154" y="272" text-anchor="middle" font-size="38" font-weight="800" fill="#F8DFE2" font-family="Arial">ورد</text>
    <text x="154" y="310" text-anchor="middle" font-size="24" fill="#FFF7F3" font-family="Arial">ومسك</text>
    <path d="M82 116c28 60 24 136 2 220" fill="none" stroke="#fff" stroke-width="14" stroke-linecap="round" opacity=".42"/>
  </g>
  <path d="M170 534c40-52 86-73 138-65 20-58 70-89 130-82" fill="none" stroke="#F8DFE2" stroke-width="18" stroke-linecap="round" opacity=".55"/>
</svg>
