<svg xmlns="http://www.w3.org/2000/svg" viewBox="0 0 1100 1200">
  <defs>
    <linearGradient id="bg" x1="0" y1="0" x2="1" y2="1"><stop stop-color="#18110F"/><stop offset=".55" stop-color="#4B1421"/><stop offset="1" stop-color="#8C5A2E"/></linearGradient>
    <linearGradient id="glass" x1="0" y1="0" x2="0" y2="1"><stop stop-color="#FFF5E6" stop-opacity=".68"/><stop offset=".5" stop-color="#EAD6B0" stop-opacity=".25"/><stop offset="1" stop-color="#4B1421" stop-opacity=".38"/></linearGradient>
    <linearGradient id="gold" x1="0" y1="0" x2="1" y2="1"><stop stop-color="#FFF0CC"/><stop offset=".52" stop-color="#C89A55"/><stop offset="1" stop-color="#8C5A2E"/></linearGradient>
  </defs>
  <rect width="1100" height="1200" fill="url(#bg)"/>
  <circle cx="190" cy="220" r="210" fill="#EAD6B0" opacity=".12"/>
  <circle cx="900" cy="900" r="260" fill="#C89A55" opacity=".16"/>
  <g transform="translate(310 170)">
    <rect x="170" y="0" width="170" height="108" rx="22" fill="url(#gold)"/>
    <rect x="132" y="88" width="246" height="78" rx="28" fill="#18110F" stroke="url(#gold)" stroke-width="8"/>
    <rect x="66" y="148" width="378" height="620" rx="92" fill="url(#glass)" stroke="rgba(255,255,255,.58)" stroke-width="8"/>
    <rect x="118" y="290" width="274" height="190" rx="34" fill="rgba(24,17,15,.72)" stroke="url(#gold)" stroke-width="7"/>
    <text x="255" y="376" text-anchor="middle" font-size="54" font-weight="800" fill="#EAD6B0" font-family="Arial">دار الأثر</text>
    <text x="255" y="430" text-anchor="middle" font-size="28" fill="#FFF5E6" font-family="Arial">ROYAL OUD</text>
    <path d="M148 180c42 90 38 214 6 352" fill="none" stroke="#FFF5E6" stroke-width="18" stroke-linecap="round" opacity=".42"/>
    <ellipse cx="255" cy="805" rx="250" ry="46" fill="#000" opacity=".24"/>
  </g>
  <path d="M140 730c115-68 234-75 356-22" fill="none" stroke="#EAD6B0" stroke-width="10" opacity=".25"/>
  <path d="M684 260c122 34 206 106 252 216" fill="none" stroke="#FFF0CC" stroke-width="8" opacity=".2"/>
</svg>
