<svg xmlns="http://www.w3.org/2000/svg" viewBox="0 0 900 700">
  <defs>
    <linearGradient id="bg" x1="0" y1="0" x2="1" y2="1"><stop stop-color="#18110F"/><stop offset=".6" stop-color="#4B1421"/><stop offset="1" stop-color="#8C5A2E"/></linearGradient>
    <linearGradient id="gold" x1="0" y1="0" x2="1" y2="1"><stop stop-color="#FFF0CC"/><stop offset="1" stop-color="#C89A55"/></linearGradient>
  </defs>
  <rect width="900" height="700" rx="28" fill="url(#bg)"/>
  <circle cx="172" cy="148" r="112" fill="#EAD6B0" opacity=".14"/>
  <g transform="translate(170 150)">
    <rect x="50" y="205" width="500" height="178" rx="30" fill="#18110F" stroke="url(#gold)" stroke-width="8"/>
    <rect x="50" y="165" width="500" height="76" rx="24" fill="url(#gold)"/>
    <rect x="278" y="165" width="52" height="218" fill="#FFF0CC" opacity=".82"/>
    <path d="M244 162c-54-46-8-94 56-18 58-78 116-34 48 19" fill="none" stroke="#FFF0CC" stroke-width="18" stroke-linecap="round"/>
    <g transform="translate(104 0)">
      <rect x="0" y="56" width="92" height="206" rx="28" fill="#C89A55"/>
      <rect x="15" y="122" width="62" height="62" rx="12" fill="#4B1421" stroke="#FFF0CC" stroke-width="5"/>
    </g>
    <g transform="translate(402 0)">
      <rect x="0" y="56" width="92" height="206" rx="28" fill="#F5E2DB"/>
      <rect x="15" y="122" width="62" height="62" rx="12" fill="#4B1421" stroke="#C89A55" stroke-width="5"/>
    </g>
  </g>
  <text x="450" y="560" text-anchor="middle" font-size="44" font-weight="800" fill="#EAD6B0" font-family="Arial">VIP</text>
</svg>
