<svg xmlns="http://www.w3.org/2000/svg" viewBox="0 0 900 700">
  <defs>
    <linearGradient id="bg" x1="0" y1="0" x2="1" y2="1"><stop stop-color="#18110F"/><stop offset="1" stop-color="#4B1421"/></linearGradient>
    <linearGradient id="bottle" x1="0" y1="0" x2="0" y2="1"><stop stop-color="#FFF0CC" stop-opacity=".72"/><stop offset=".5" stop-color="#C89A55" stop-opacity=".38"/><stop offset="1" stop-color="#4B1421" stop-opacity=".54"/></linearGradient>
    <linearGradient id="gold" x1="0" y1="0" x2="1" y2="1"><stop stop-color="#FFF0CC"/><stop offset="1" stop-color="#A36D38"/></linearGradient>
  </defs>
  <rect width="900" height="700" rx="28" fill="url(#bg)"/>
  <circle cx="170" cy="140" r="108" fill="#C89A55" opacity=".16"/>
  <g transform="translate(300 80)">
    <rect x="92" y="0" width="124" height="72" rx="18" fill="url(#gold)"/>
    <rect x="56" y="60" width="196" height="54" rx="20" fill="#18110F" stroke="url(#gold)" stroke-width="6"/>
    <rect x="0" y="104" width="308" height="430" rx="70" fill="url(#bottle)" stroke="#FFF5E6" stroke-width="7" opacity=".95"/>
    <rect x="56" y="220" width="196" height="116" rx="22" fill="#18110F" stroke="url(#gold)" stroke-width="6"/>
    <text x="154" y="272" text-anchor="middle" font-size="42" font-weight="800" fill="#EAD6B0" font-family="Arial">عود</text>
    <text x="154" y="310" text-anchor="middle" font-size="25" fill="#FFF5E6" font-family="Arial">ملكي</text>
    <path d="M54 126c25 66 26 142 2 220" fill="none" stroke="#fff" stroke-width="14" stroke-linecap="round" opacity=".38"/>
  </g>
  <path d="M104 540c188-70 374-70 558 0" stroke="#EAD6B0" stroke-width="12" opacity=".18" fill="none"/>
</svg>
