<svg xmlns="http://www.w3.org/2000/svg" viewBox="0 0 180 180" role="img" aria-labelledby="title desc">
  <title id="title">Wadi Al-Dhahab logo</title>
  <desc id="desc">Luxury honey brand mark with Arabic letter waw, honey drop, and hexagon frame.</desc>
  <defs>
    <linearGradient id="gold" x1="40" y1="18" x2="142" y2="158" gradientUnits="userSpaceOnUse">
      <stop offset="0" stop-color="#F6D889"/>
      <stop offset=".44" stop-color="#C9962C"/>
      <stop offset="1" stop-color="#8A5A12"/>
    </linearGradient>
    <linearGradient id="green" x1="28" y1="24" x2="158" y2="158" gradientUnits="userSpaceOnUse">
      <stop offset="0" stop-color="#163E35"/>
      <stop offset="1" stop-color="#071B18"/>
    </linearGradient>
  </defs>
  <path fill="url(#green)" d="M90 9 160 49v82L90 171l-70-40V49L90 9Z"/>
  <path fill="none" stroke="url(#gold)" stroke-width="7" d="M90 18.5 152 54v72L90 161.5 28 126V54L90 18.5Z"/>
  <path fill="url(#gold)" d="M92 45c15 19 28 37 28 56 0 19-13 34-31 34s-31-15-31-34c0-19 15-38 34-56Z"/>
  <path fill="#FDF5DE" d="M97 112c-12 0-21-9-21-22 0-5 2-11 5-17-8 9-14 20-14 30 0 15 10 25 23 25 9 0 16-5 20-12-4 2-8 4-13 4Z" opacity=".82"/>
  <path fill="#071B18" d="M94 74c11 0 20 9 20 21 0 18-15 33-37 33-13 0-23-6-30-15l12-12c4 6 10 9 18 9 11 0 18-6 18-15 0-5-3-9-8-9-4 0-8 2-12 7l-13-8c8-8 18-11 32-11Z"/>
</svg>
